<svg width="434" height="127" xmlns="http://www.w3.org/2000/svg">

 <g>
  <title>background</title>
  <rect fill="none" id="canvas_background" height="602" width="802" y="-1" x="-1"/>
 </g>
 <g>
  <title>Layer 1</title>
  <path id="svg_1" fill="#000000" d="m72.758797,5.37207l-51.955397,0c-13.8258,0 -20.8034,6.71123 -20.8034,20.00453l0,71.145601c0,1.7425 0.93593,2.815399 2.95235,2.815399l15.70535,0c1.8794,0 3.0893,-1.072899 3.0893,-2.815399l0,-2.701202c0,-6.5896 2.7773,-10.181099 9.678801,-10.873497l41.332996,0c15.1651,0 22.013306,-6.574402 22.013306,-20.940403l0,-35.694599c0,-14.3661 -6.848206,-20.94043 -22.013306,-20.94043zm0.289101,50.593331c0,7.791798 -1.765297,9.397301 -11.033195,9.397301l-22.013302,0c-9.260401,0 -15.172701,3.089302 -18.261999,9.130997l0,-43.881998c0,-6.0417 1.476099,-7.6549 8.856998,-7.6549l31.418303,0c9.267899,0 11.033195,1.613199 11.033195,9.397398l0,23.611202z"/>
  <path id="svg_2" fill="#000000" d="m144.574005,44.7038c-11.945999,0 -17.052002,6.041698 -17.052002,16.245602l0,35.839096c0,1.613205 -0.807007,2.549103 -2.686005,2.549103l-14.228996,0c-1.880005,0 -2.816002,-0.935898 -2.816002,-2.549103l0,-65.507198c0,-1.613199 0.935997,-2.5567 2.816002,-2.5567l11.945999,0c1.75,0 2.685997,0.943501 2.685997,2.5567l0,10.569099c2.283005,-8.7201 8.865005,-13.156199 20.544998,-13.156199l4.832001,0c1.742004,0 2.678009,0.943499 2.678009,2.556599l0,10.904001c0,1.7425 -0.936005,2.549 -2.678009,2.549l-6.041992,0z"/>
  <path id="svg_3" fill="#000000" d="m237.192993,80.139702c0,13.293198 -5.904999,19.197899 -19.996994,19.197899l-34.903,0c-13.962997,0 -20.005005,-5.904701 -20.005005,-19.197899l0,-32.202003c0,-13.285599 6.042007,-19.197899 20.005005,-19.197899l34.903,0c14.091995,0 19.996994,5.9123 19.996994,19.197899l0,32.202003zm-19.730988,-27.111401c0,-6.985302 -1.339005,-8.324501 -9.66301,-8.324501l-15.979996,0c-8.453003,0 -9.800003,1.339199 -9.800003,8.324501l0,22.013302c0,6.9776 1.347,8.324394 9.800003,8.324394l15.979996,0c8.324005,0 9.66301,-1.346794 9.66301,-8.324394l0,-22.013302z"/>
  <path id="svg_4" fill="#000000" d="m257.059998,44.7038l-6.718994,0c-1.75,0 -2.686005,-0.806499 -2.686005,-2.549l0,-10.873501c0,-1.613199 0.936005,-2.5567 2.686005,-2.5567l6.712006,0l0,-8.7201c0.006989,-13.29322 6.984985,-20.004499 20.811005,-20.004499l16.511993,0c1.878998,0 2.686005,0.94354 2.686005,2.54907l0,10.87353c0,1.7501 -0.807007,2.549 -2.686005,2.549l-8.721008,0c-7.388,0 -8.864014,1.613201 -8.864014,7.6548l0,5.0982l17.585022,0c1.878998,0 2.686005,0.943501 2.686005,2.5567l0,10.873501c0,1.7425 -0.807007,2.549 -2.686005,2.549l-17.585022,0l0,52.084698c0,1.613205 -0.935974,2.549103 -2.815979,2.549103l-14.229004,0c-1.878998,0 -2.686005,-0.935898 -2.686005,-2.549103l0,-52.084698z"/>
  <path id="svg_5" fill="#000000" d="m311.830994,44.7038l-6.703979,0c-1.742004,0 -2.678009,-0.806499 -2.678009,-2.549l0,-10.873501c0,-1.613199 0.936005,-2.5567 2.678009,-2.5567l6.718994,0l0,-8.7201c-0.015015,-13.29322 6.977997,-20.004499 20.787994,-20.004499l16.511993,0c1.880005,0 2.686005,0.94354 2.686005,2.54907l0,10.87353c0,1.7501 -0.806,2.549 -2.686005,2.549l-8.72699,0c-7.381012,0 -8.856995,1.613201 -8.856995,7.6548l0,5.0982l17.583984,0c1.880005,0 2.686005,0.943501 2.686005,2.5567l0,10.873501c0,1.7425 -0.806,2.549 -2.686005,2.549l-17.583984,0l0,52.084698c0,1.613205 -0.944,2.549103 -2.822998,2.549103l-14.230011,0c-1.878998,0 -2.678009,-0.935898 -2.678009,-2.549103l0,-52.084698z"/>
  <path id="svg_6" fill="#000000" d="m411.830994,126.723l-29.264984,0c-13.149017,0 -18.787018,-5.098 -18.787018,-17.722l0,-1.338997c-0.039001,-0.360001 0.003021,-0.725006 0.125,-1.066002c0.121002,-0.342003 0.317017,-0.652 0.575012,-0.906998c0.256989,-0.255005 0.567993,-0.449005 0.911011,-0.567001c0.342987,-0.118004 0.70697,-0.158005 1.066986,-0.116005l13.696991,0c1.878998,0 2.815002,0.944 2.815002,2.686005l0,0.669998c0,2.685997 1.484009,3.759003 4.436005,3.759003l16.915009,0c8.050995,0 10.066986,-2.009003 10.066986,-8.857002l0,-21.176399c-3.088989,6.041702 -8.993988,9.130997 -18.261993,9.130997l-13.696014,0c-13.962982,0 -20.141998,-5.904694 -20.141998,-19.197899l0,-40.739399c-0.017975,-0.351799 0.040009,-0.7034 0.171021,-1.0306c0.130005,-0.327299 0.329987,-0.6224 0.584991,-0.865299c0.255005,-0.242802 0.55899,-0.427601 0.893005,-0.5417c0.333008,-0.1141 0.686981,-0.154701 1.036987,-0.119101l14.367004,0c1.742004,0 2.686005,0.943501 2.686005,2.5567l0,35.679302c0,6.9776 1.476013,8.324402 9.799988,8.324402l10.20401,0c8.856995,0 12.350006,-3.629501 12.350006,-11.010406l0,-32.993298c0,-1.613199 0.936005,-2.5567 2.686005,-2.5567l14.372986,0c0.343994,-0.033199 0.69101,0.010201 1.015991,0.1271c0.325012,0.1168 0.620026,0.304199 0.863007,0.5487c0.244019,0.244499 0.431,0.539999 0.546021,0.8652c0.115997,0.325199 0.158997,0.6721 0.125,1.015699l0,74.097698c-0.008026,14.084999 -7.526001,21.344002 -22.15802,21.344002z"/>
  <path id="svg_8" d="m82.5,39" opacity="0.5" stroke-width="1.5" stroke="#000" fill="#fff"/>
  <path id="svg_9" d="m61.5,29" opacity="0.5" stroke-width="1.5" stroke="#000" fill="#fff"/>
 </g>
</svg>